<mxfile host="app.diagrams.net" modified="2023-02-09T00:54:44.071Z" agent="5.0 (Windows NT 10.0; Win64; x64) AppleWebKit/537.36 (KHTML, like Gecko) Chrome/109.0.0.0 Safari/537.36" etag="WSAeSagkllc6tUJE5DTV" version="20.5.3" type="github">
  <diagram id="BdKZ8u59JMbQXLohgWvF" name="PÃ¡gina-1">
    <mxGraphModel dx="981" dy="520" grid="1" gridSize="10" guides="1" tooltips="1" connect="1" arrows="1" fold="1" page="1" pageScale="1" pageWidth="827" pageHeight="1169" math="0" shadow="0">
      <root>
        <mxCell id="0" />
        <mxCell id="1" parent="0" />
        <mxCell id="x0LT32QMWRhacM0q2mNp-2" value="NAV" style="rounded=0;whiteSpace=wrap;html=1;strokeColor=#3333FF;" vertex="1" parent="1">
          <mxGeometry x="60" y="30" width="710" height="60" as="geometry" />
        </mxCell>
        <mxCell id="x0LT32QMWRhacM0q2mNp-3" value="LOGO" style="rounded=0;whiteSpace=wrap;html=1;strokeColor=#3333FF;" vertex="1" parent="1">
          <mxGeometry x="90" y="40" width="80" height="40" as="geometry" />
        </mxCell>
        <mxCell id="x0LT32QMWRhacM0q2mNp-4" value="home&lt;span style=&quot;color: rgba(0, 0, 0, 0); font-family: monospace; font-size: 0px; text-align: start;&quot;&gt;%3CmxGraphModel%3E%3Croot%3E%3CmxCell%20id%3D%220%22%2F%3E%3CmxCell%20id%3D%221%22%20parent%3D%220%22%2F%3E%3CmxCell%20id%3D%222%22%20value%3D%22LOGO%22%20style%3D%22rounded%3D0%3BwhiteSpace%3Dwrap%3Bhtml%3D1%3BstrokeColor%3D%233333FF%3B%22%20vertex%3D%221%22%20parent%3D%221%22%3E%3CmxGeometry%20x%3D%2290%22%20y%3D%2240%22%20width%3D%2280%22%20height%3D%2240%22%20as%3D%22geometry%22%2F%3E%3C%2FmxCell%3E%3C%2Froot%3E%3C%2FmxGraphModel%3E&lt;/span&gt;" style="rounded=0;whiteSpace=wrap;html=1;strokeColor=#3333FF;" vertex="1" parent="1">
          <mxGeometry x="500" y="40" width="80" height="40" as="geometry" />
        </mxCell>
        <mxCell id="x0LT32QMWRhacM0q2mNp-5" value="contacto" style="rounded=0;whiteSpace=wrap;html=1;strokeColor=#3333FF;" vertex="1" parent="1">
          <mxGeometry x="590" y="40" width="80" height="40" as="geometry" />
        </mxCell>
        <mxCell id="x0LT32QMWRhacM0q2mNp-6" value="FAQ" style="rounded=0;whiteSpace=wrap;html=1;strokeColor=#3333FF;" vertex="1" parent="1">
          <mxGeometry x="680" y="40" width="80" height="40" as="geometry" />
        </mxCell>
        <mxCell id="x0LT32QMWRhacM0q2mNp-7" value="SECTION" style="rounded=0;whiteSpace=wrap;html=1;strokeColor=#FF9999;strokeWidth=3;" vertex="1" parent="1">
          <mxGeometry x="60" y="110" width="710" height="270" as="geometry" />
        </mxCell>
        <mxCell id="x0LT32QMWRhacM0q2mNp-8" value="ARTTICLE" style="rounded=0;whiteSpace=wrap;html=1;strokeColor=#336600;strokeWidth=3;" vertex="1" parent="1">
          <mxGeometry x="90" y="130" width="390" height="220" as="geometry" />
        </mxCell>
        <mxCell id="x0LT32QMWRhacM0q2mNp-9" value="ASIDE" style="rounded=0;whiteSpace=wrap;html=1;strokeColor=#336600;strokeWidth=3;" vertex="1" parent="1">
          <mxGeometry x="490" y="130" width="250" height="220" as="geometry" />
        </mxCell>
        <mxCell id="x0LT32QMWRhacM0q2mNp-10" value="FOOTER" style="rounded=0;whiteSpace=wrap;html=1;strokeColor=#FF0080;strokeWidth=3;" vertex="1" parent="1">
          <mxGeometry x="60" y="400" width="710" height="60" as="geometry" />
        </mxCell>
        <mxCell id="x0LT32QMWRhacM0q2mNp-11" value="LOGO" style="rounded=0;whiteSpace=wrap;html=1;strokeColor=#3333FF;" vertex="1" parent="1">
          <mxGeometry x="100" y="410" width="80" height="40" as="geometry" />
        </mxCell>
        <mxCell id="x0LT32QMWRhacM0q2mNp-13" value="TERMINOS Y CONDICIONES" style="rounded=1;whiteSpace=wrap;html=1;strokeColor=#FF0080;strokeWidth=3;" vertex="1" parent="1">
          <mxGeometry x="570" y="410" width="180" height="40" as="geometry" />
        </mxCell>
      </root>
    </mxGraphModel>
  </diagram>
</mxfile>
